<svg width="430" height="431" viewBox="0 0 430 431" fill="none" xmlns="http://www.w3.org/2000/svg">
<path d="M80 249C80 247.343 81.3431 246 83 246H147C148.657 246 150 247.343 150 249V373C150 374.657 148.657 376 147 376H83C81.3431 376 80 374.657 80 373V249Z" fill="#FFC738"/>
<path d="M180 144C180 142.343 181.343 141 183 141H247C248.657 141 250 142.343 250 144V373C250 374.657 248.657 376 247 376H183C181.343 376 180 374.657 180 373V144Z" fill="#F24C00"/>
<path d="M280 59C280 57.3431 281.343 56 283 56H347C348.657 56 350 57.3431 350 59V373C350 374.657 348.657 376 347 376H283C281.343 376 280 374.657 280 373V59Z" fill="#F28BA8"/>
<g style="mix-blend-mode:multiply" opacity="0.5">
<path d="M315 56H283C281.343 56 280 57.3431 280 59V373C280 374.657 281.343 376 283 376H315V56Z" fill="#F28BA8"/>
</g>
<g style="mix-blend-mode:multiply" opacity="0.5">
<path d="M215 141H183C181.343 141 180 142.343 180 144V373C180 374.657 181.343 376 183 376H215V141Z" fill="#F24C00"/>
</g>
<g style="mix-blend-mode:multiply" opacity="0.5">
<path d="M115 246H83C81.3431 246 80 247.343 80 249V373C80 374.657 81.3431 376 83 376H115V246Z" fill="#FFC738"/>
</g>
<path d="M375 376H55" stroke="#3A3347" stroke-width="7" stroke-miterlimit="14.8" stroke-linecap="round" stroke-linejoin="round"/>
</svg>
