<?xml version="1.0" encoding="UTF-8"?>
<svg id="Layer_1" data-name="Layer 1" xmlns="http://www.w3.org/2000/svg" viewBox="0 0 950 950">
  <defs>
    <style>
      .cls-1 {
        fill: #ee4d2d;
      }
    </style>
  </defs>
  <path class="cls-1" d="m222.67,285.44h12.57c30.96,1.64,61.56,10.74,85.41,31.14.36.36.55.91.18,1.27l-37.15,47.35c-.36.36-.73.55-1.27.18-24.59-15.3-68.48-27.86-93.97-12.02-17.85,11.11-5.1,30.23,8.74,36.61,46.99,21.49,118.56,42.62,109.27,111.09-4.01,30.05-21.49,53.72-47.53,68.84-28.05,16.21-63.74,18.76-95.06,14.75-32.05-4.01-59.92-17.85-83.23-41.34-.55-.55-.55-1.09,0-1.64l36.79-46.8c.55-.55,1.46-.73,2-.18h0c11.11,9.65,23.86,18.39,37.52,23.31,22.22,8.01,62.83,11.11,79.95-9.47,13.11-15.66-7.47-31.32-19.67-36.97-40.25-18.39-97.98-33.33-103.08-85.96-1.46-15.48,1.82-30.78,10.2-46.44,18.21-34.24,59.01-52.27,98.34-53.72Z"/>
  <path class="cls-1" d="m382.02,285.44h107.81c50.81,2.19,105.99,26.41,102.9,87.05-3.64,70.48-62.47,111.64-128.76,113.09-15.66.36-31.14.36-46.44,0-.55,0-1.09.36-1.09.91l-14.75,98.89c0,.55-.36.91-1.09.91l-64.65-.55c-.55,0-.73-.36-.73-.91l46.8-299.4Zm129.3,113.46c10.93-18.03,12.38-46.8-13.84-53.36-19.12-4.74-38.24-4.37-57.37-3.46-.73,0-1.09.36-1.27,1.09l-11.47,81.59c-.18.73.18,1.09,1.09,1.27,28.23.91,65.93.91,82.86-27.14Z"/>
  <path class="cls-1" d="m607.66,285.44h82.13l65.56,137.68c.18.55.18,1.09-.18,1.64l-182.48,232.74c-.36.55-.91.73-1.64.73h-73.21c-1.09,0-1.27-.36-.73-1.27,58.64-74.49,117.46-149.15,176.47-223.82,4.01-4.92,4.55-4.37,1.46-10.56-22.4-45.35-44.8-91.06-67.38-137.13Z"/>
  <path class="cls-1" d="m789.96,285.44h77.22l-100.71,125.3c-.36.36-.91.55-1.27.18-.18,0-.18-.18-.18-.36l-27.14-56.82c-.36-.91-.36-1.64.18-2.37l51.9-65.93Z"/>
  <path class="cls-1" d="m761.92,438.97c0-.18.18-.18,0,0,.55.18.91.73,1.09,1.09,23.13,48.44,46.26,96.7,69.39,144.78.18.36,0,.73-.36.91h-75.58c-.73,0-1.09-.36-1.46-.91l-41.16-83.77c-.18-.55-.18-1.09.18-1.46l47.9-60.64Z"/>
  <path class="cls-1" d="m47.29,606.88h66.29c.36,0,.55.36.55.55s0,.18-.18.36l-39.34,50.26c-.18.18-.36.18-.55.18H7.04c-.36,0-.55-.18-.55-.55,0-.18,0-.36.18-.36l40.25-50.26s.18-.18.36-.18Z"/>
  <path class="cls-1" d="m239.97,607.61l-39.34,50.45c-.18.18-.36.18-.55.18h-107.08c-.36,0-.55-.36-.55-.55s0-.18.18-.36l39.34-50.26c.18-.18.36-.18.55-.18l107.08-.18c.36,0,.55.36.55.55,0,.18,0,.36-.18.36Z"/>
  <path class="cls-1" d="m476.9,658.42H219.03c-.36,0-.73-.18-.73-.55,0-.18,0-.36.18-.36l39.15-50.08c.18-.18.36-.18.55-.18h258.06c.36,0,.73.18.73.55,0,.18,0,.36-.18.36l-39.34,49.9c-.18.18-.36.36-.55.36Z"/>
  <path class="cls-1" d="m641.54,618.53l-1.09,9.11c0,.36.18.91.73.91h.18l21.31-.55c.36,0,.73.36.73.73v.18l-1.27,9.29c0,.36-.36.73-.73.73h-22.22c-.36,0-.73.36-.73.73l-.91,7.1c0,.36.18.73.73.91h22.04c.36,0,.73.36.73.73v.18l-1.64,9.29c0,.36-.36.73-.73.73h-33.69c-.36,0-.73-.36-.73-.73v-.18l7.83-49.9c0-.36.36-.73.73-.73l33.87-.18c.36,0,.73.36.73.73v.18l-1.64,9.47c0,.36-.36.73-.73.73h-22.58c-.55-.18-.73.18-.91.55Z"/>
  <path class="cls-1" d="m690.53,644.03l-11.47,14.21c-.18.18-.36.18-.55.18h-12.75c-.36,0-.73-.36-.73-.73,0-.18,0-.36.18-.36l20.21-24.77c.18-.18.18-.55,0-.73l-12.02-24.04c-.18-.36,0-.73.36-.91h.36l13.29.36c.36,0,.55.18.73.36l6.01,12.57c.18.36.55.55.91.36.18,0,.18-.18.18-.18l10.56-12.75c.18-.18.36-.18.55-.18l13.11-.73c.36,0,.73.36.73.73,0,.18,0,.36-.18.55l-19.67,24.22c-.18.18-.18.55,0,.73l12.75,24.77c.18.36,0,.73-.36.91h-13.66c-.36,0-.55-.18-.73-.36l-6.92-13.84c-.18-.36-.55-.55-.91-.36q.18-.18,0,0Z"/>
  <path class="cls-1" d="m825.84,647.49h22.22c.36,0,.73.36.73.73v.18l-1.46,9.47c0,.36-.36.55-.73.55h-34.06c-.36,0-.73-.36-.73-.73v-.18l7.65-49.9c0-.36.36-.55.73-.55l34.06-.36c.36,0,.73.36.73.73v.18l-1.64,9.83c0,.36-.36.55-.73.55h-22.58c-.36,0-.55.18-.73.55l-1.46,9.11c0,.36.18.73.55.73h.18l21.67-.36c.36,0,.73.36.73.73h0l-1.09,9.47c0,.36-.36.55-.73.55h-22.04c-.36,0-.55.18-.73.55l-1.27,7.28c0,.36.18.73.73.91q0-.18,0,0Z"/>
  <path class="cls-1" d="m732.96,645.67l-1.64,11.47c0,.55-.55,1.09-1.27,1.09h-9.65c-.55,0-.91-.36-.73-.91l7.83-49.54c.18-.73.55-.91,1.09-.91,14.75-.18,36.79-4.37,35.88,16.21-.73,18.76-14.93,21.31-30.41,21.49-.55.18-1.09.55-1.09,1.09Zm4.19-26.59l-2,13.29c-.18.55.18.91.73.91,8.74.18,20.58.55,16.75-12.75-.36-1.09-1.27-2-2.55-2l-11.11-.91c-1.09-.18-1.64.36-1.82,1.46Z"/>
  <path class="cls-1" d="m773.39,607.24c0-.18.18-.36.36-.36,11.11-.18,33.87-4.01,36.24,11.47,1.64,10.56-2.19,18.58-11.66,24.22-.55.36-.55.73-.36,1.09l7.65,13.66c.36.55.18.91-.55.91h-10.93c-.73,0-1.09-.36-1.46-.91l-6.37-11.47c-1.09-2-3.82-2.91-5.83-1.64-1.09.73-2,1.82-2.19,3.1l-1.46,9.83c-.18.73-.55,1.09-1.27,1.09h-9.11c-.91,0-1.27-.36-1.09-1.27l8.01-49.72Zm9.47,11.47l-2.19,14.02c0,.55.18.91.91.73,6.92-.36,20.4.55,17.3-11.29-1.46-5.28-10.74-4.74-14.93-4.37-.55.18-.91.36-1.09.91Z"/>
  <path class="cls-1" d="m856.8,647.31l3.1-3.82c.36-.36.73-.55,1.09-.18,5.1,2.91,10.56,5.83,16.39,3.28,3.64-1.64,3.82-5.65,0-7.28-9.65-4.55-23.13-9.47-15.3-23.31,6.56-11.47,23.31-11.11,32.6-4.37.55.36.73.91.18,1.46l-5.46,6.56c-.36.55-.91.55-1.46.36-5.1-2.19-10.93-5.1-15.66-.55-1.09,1.09-1.09,2.91-.18,4.01.18.18.55.36.73.55,9.47,4.74,25.68,10.2,17.3,24.95-7.28,12.75-26.41,12.02-36.06,2.55-.36-.36-.55-.91-.18-1.27.36-.91.91-1.64,1.82-2,.73-.55.91-.73,1.09-.91Z"/>
  <path class="cls-1" d="m905.24,614.89c6.56-10.56,22.95-9.83,32.05-3.46.55.36.73.91.18,1.46l-5.83,6.92c-.55.55-1.09.55-1.64.18-4.01-2.73-8.2-3.64-12.93-2.73-2,.36-3.46,2.37-3.1,4.55q0,.18.18.36c.18.91,1.27,1.64,2.73,2.37,4.74,2.19,8.74,4.37,12.2,6.56,19.67,13.48-12.02,39.52-32.42,20.4-.55-.55-.55-1.27-.18-1.82l5.46-6.37c.55-.55,1.09-.73,1.64-.18,4.01,3.1,15.12,7.1,18.21.73.91-1.82.18-4.01-1.64-4.74,0,0-.18,0-.18-.18-10.02-4.37-23.86-9.29-14.75-24.04Z"/>
</svg>