<?xml version="1.0" encoding="UTF-8"?>
<svg id="Layer_1" data-name="Layer 1" xmlns="http://www.w3.org/2000/svg" viewBox="0 0 960 960">
  <defs>
    <style>
      .cls-1 {
        fill: #1b1b20;
      }

      .cls-1, .cls-2 {
        stroke-width: 0px;
      }

      .cls-2 {
        fill: #fe5000;
      }
    </style>
  </defs>
  <path class="cls-2" d="M177.99,412.1c-35.3-2.54-74.62-2.54-109.91,0-7.39.53-12.99,6.19-13.54,13.1-1.78,22.18-2.02,55.41-.39,77.56.54,7.32,6.96,13.6,15.66,13.6h27.25v33.61l-27.19-.02c-24.95,0-47.34-18.49-49.27-44.72-1.76-23.88-1.52-58.84.4-82.73,1.92-23.95,21.18-42.29,44.68-43.97,36.9-2.65,77.83-2.65,114.74,0,23.49,1.69,42.75,20.03,44.68,43.97,1.92,23.9,1.84,58.85.07,82.73-1.93,26.23-24.27,44.8-49.22,44.8l-26.91-.02-51.96,33.61v-33.65l51.96-33.61h26.92c8.69,0,15.12-6.28,15.66-13.6,1.63-22.16,1.72-55.38-.06-77.56-.56-6.92-6.15-12.57-13.54-13.1Z"/>
  <path class="cls-1" d="M278,524.3h81.32v-20.42h-56.68v-102.8h-24.64v123.22Z"/>
  <path class="cls-1" d="M371.11,524.3h23.94v-91.53h-23.94v91.53ZM369.17,408.83c0,7.92,5.81,13.91,13.91,13.91s13.91-5.98,13.91-13.91-5.81-13.91-13.91-13.91-13.91,5.98-13.91,13.91Z"/>
  <path class="cls-1" d="M488.91,432.77h-23.94l-19.71,67.06-19.71-67.06h-23.94l31.16,91.53h25l31.16-91.53Z"/>
  <path class="cls-1" d="M531.63,526.41c20.24,0,36.61-12.15,39.78-28.87h-20.95c-2.29,6.34-8.63,11.62-18.83,11.62-13.91,0-19.36-9.33-19.36-20.07v-2.29h59.85v-16.02c0-22-13.73-40.13-40.84-40.13s-42.25,17.6-42.25,42.42v12.5c0,25.7,16.72,40.84,42.6,40.84ZM512.27,469.03c0-12.32,5.28-21.47,19.01-21.47,12.85,0,18.83,8.63,18.83,20.07v2.29h-37.85v-.88Z"/>
  <path class="cls-1" d="M635.74,526.77c31.16,0,50.34-21.12,51.57-46.29h-22.88c-1.58,13.91-10.39,26.05-28.69,26.05-20.59,0-29.4-14.08-29.4-33.8v-20.07c0-19.71,8.8-33.8,29.4-33.8,18.31,0,27.11,12.15,28.69,26.05h22.88c-1.23-25.17-20.42-46.29-51.57-46.29-37.14,0-53.86,23.76-53.86,55.27v17.6c0,31.51,16.72,55.27,53.86,55.27Z"/>
  <path class="cls-1" d="M700.33,524.3h23.94v-54.22c0-12.32,6.86-18.66,17.6-18.66,11.62,0,16.72,7.57,16.72,18.13v54.74h23.94v-58.62c0-21.65-12.49-35.03-32.39-35.03-11.79,0-21.12,5.1-25.87,13.03v-47.88h-23.94v128.5Z"/>
  <path class="cls-1" d="M828.23,526.41c10.56,0,22.18-4.4,26.4-10.56v8.45h23.06v-58.44c0-21.3-15.66-35.2-38.55-35.2-19.71,0-33.98,9.51-39.26,27.28h22.18c2.46-4.93,7.57-8.63,15.84-8.63,9.86,0,15.84,6.34,15.84,14.79v12.5c-4.22-3.52-12.32-7.75-23.24-7.75-22,0-36.96,9.15-36.96,29.04,0,17.78,14.08,28.52,34.68,28.52ZM834.38,510.57c-10.03,0-17.6-4.93-17.6-13.38s7.04-13.03,18.31-13.03,18.66,4.75,18.66,12.85-8.8,13.55-19.36,13.55Z"/>
  <path class="cls-1" d="M922.42,524.3h16.55v-19.36h-9.68c-6.34,0-8.62-2.46-8.62-8.45v-44.36h19.54v-19.36h-19.54v-25h-24.12v25h-13.03v19.36h13.03v46.12c0,16.19,8.28,26.05,25.88,26.05Z"/>
</svg>