<svg width="1150" height="1440" viewBox="0 0 1150 1440" fill="none" xmlns="http://www.w3.org/2000/svg">
<g filter="url(#filter0_d_101_73)">
<path d="M56.0974 71.0378C-29.9162 -28.5414 11.0608 -113.198 42.301 -143.078L486.886 -619.535L2126.3 910.207L1681.71 1386.66C1654.06 1419.89 1572.44 1466.63 1467.15 1387.7C1335.54 1289.05 1296.62 1337.24 1244.18 1356.73C1191.73 1376.22 1128.52 1385.66 1053.3 1261.13C978.071 1136.6 886.931 1033.45 746.21 1030.94C633.634 1028.93 568.587 979.904 546.811 959.584C525.034 939.265 471.632 877.762 461.845 765.594C449.611 625.383 340.403 541.592 210.972 475.155C81.5404 408.717 86.587 345.004 102.405 291.341C118.223 237.678 163.615 195.512 56.0974 71.0378Z" fill="black"/>
<path d="M56.0974 71.0378C-29.9162 -28.5414 11.0608 -113.198 42.301 -143.078L486.886 -619.535L2126.3 910.207L1681.71 1386.66C1654.06 1419.89 1572.44 1466.63 1467.15 1387.7C1335.54 1289.05 1296.62 1337.24 1244.18 1356.73C1191.73 1376.22 1128.52 1385.66 1053.3 1261.13C978.071 1136.6 886.931 1033.45 746.21 1030.94C633.634 1028.93 568.587 979.904 546.811 959.584C525.034 939.265 471.632 877.762 461.845 765.594C449.611 625.383 340.403 541.592 210.972 475.155C81.5404 408.717 86.587 345.004 102.405 291.341C118.223 237.678 163.615 195.512 56.0974 71.0378Z" fill="url(#paint0_linear_101_73)"/>
<path d="M56.0974 71.0378C-29.9162 -28.5414 11.0608 -113.198 42.301 -143.078L486.886 -619.535L2126.3 910.207L1681.71 1386.66C1654.06 1419.89 1572.44 1466.63 1467.15 1387.7C1335.54 1289.05 1296.62 1337.24 1244.18 1356.73C1191.73 1376.22 1128.52 1385.66 1053.3 1261.13C978.071 1136.6 886.931 1033.45 746.21 1030.94C633.634 1028.93 568.587 979.904 546.811 959.584C525.034 939.265 471.632 877.762 461.845 765.594C449.611 625.383 340.403 541.592 210.972 475.155C81.5404 408.717 86.587 345.004 102.405 291.341C118.223 237.678 163.615 195.512 56.0974 71.0378Z" stroke="black"/>
</g>
<defs>
<filter id="filter0_d_101_73" x="0.162537" y="-620.242" width="2130.84" height="2059.75" filterUnits="userSpaceOnUse" color-interpolation-filters="sRGB">
<feFlood flood-opacity="0" result="BackgroundImageFix"/>
<feColorMatrix in="SourceAlpha" type="matrix" values="0 0 0 0 0 0 0 0 0 0 0 0 0 0 0 0 0 0 127 0" result="hardAlpha"/>
<feOffset dy="4"/>
<feGaussianBlur stdDeviation="2"/>
<feComposite in2="hardAlpha" operator="out"/>
<feColorMatrix type="matrix" values="0 0 0 0 0 0 0 0 0 0 0 0 0 0 0 0 0 0 0.25 0"/>
<feBlend mode="normal" in2="BackgroundImageFix" result="effect1_dropShadow_101_73"/>
<feBlend mode="normal" in="SourceGraphic" in2="effect1_dropShadow_101_73" result="shape"/>
</filter>
<linearGradient id="paint0_linear_101_73" x1="-761.041" y1="-411.364" x2="1230.03" y2="1193.9" gradientUnits="userSpaceOnUse">
<stop stop-color="#ED374D"/>
<stop offset="0.505208" stop-color="#FA793F"/>
<stop offset="1" stop-color="#F7F651"/>
</linearGradient>
</defs>
</svg>
