<?xml version="1.0" encoding="UTF-8" standalone="no"?>
<!-- Created with Inkscape (http://www.inkscape.org/) -->

<svg
   version="1.1"
   id="svg2"
   width="568"
   height="568"
   viewBox="0 0 568 568"
   sodipodi:docname="rumah-zakat-seeklogo.eps"
   xmlns:inkscape="http://www.inkscape.org/namespaces/inkscape"
   xmlns:sodipodi="http://sodipodi.sourceforge.net/DTD/sodipodi-0.dtd"
   xmlns="http://www.w3.org/2000/svg"
   xmlns:svg="http://www.w3.org/2000/svg">
  <defs
     id="defs6" />
  <sodipodi:namedview
     id="namedview4"
     pagecolor="#ffffff"
     bordercolor="#000000"
     borderopacity="0.25"
     inkscape:showpageshadow="2"
     inkscape:pageopacity="0.0"
     inkscape:pagecheckerboard="0"
     inkscape:deskcolor="#d1d1d1" />
  <g
     id="g8"
     inkscape:groupmode="layer"
     inkscape:label="ink_ext_XXXXXX"
     transform="matrix(1.3333333,0,0,-1.3333333,0,568)">
    <g
       id="g10"
       transform="scale(0.1)">
      <path
         d="M 0,4251.97 H 4251.97 V 0 H 0 v 4251.97"
         style="fill:#ffffff;fill-opacity:1;fill-rule:evenodd;stroke:none"
         id="path12" />
      <path
         d="m 2356.27,2192.09 -87.57,146.81 h -79.15 v -146.81 h -61.75 v 388.59 h 166.17 c 39.29,0 69.32,-9.8 90.1,-29.42 20.77,-19.61 31.14,-48.84 31.14,-87.68 0,-27.96 -7.38,-52.43 -22.17,-73.41 -14.78,-20.97 -34.71,-34.37 -59.78,-40.19 l 99.93,-157.89 z m -166.72,199.25 h 87.02 c 24.69,0 43.12,5.62 55.29,16.89 12.16,11.27 18.25,28.36 18.25,51.27 0,22.14 -4.97,38.84 -14.89,50.1 -9.9,11.28 -26.09,16.9 -48.54,16.9 h -97.13 z m 433.38,-207.99 c -39.3,0 -69.89,10 -91.79,30.01 -21.89,20 -32.84,49.22 -32.84,87.68 v 183.51 h 58.94 v -174.78 c 0,-24.85 5.34,-43.21 16.01,-55.05 10.66,-11.85 27.22,-17.77 49.68,-17.77 22.45,0 39,5.92 49.67,17.77 10.66,11.84 16.01,30.2 16.01,55.05 v 174.78 h 56.69 v -183.51 c 0,-38.46 -10.67,-67.68 -32,-87.68 -21.34,-20.01 -51.46,-30.01 -90.37,-30.01 z m 512.52,307.61 c 39.29,0 68.01,-8.54 86.16,-25.64 18.15,-17.09 27.24,-43.69 27.24,-79.81 v -193.42 h -58.95 v 185.27 c 0,40.78 -22.27,61.17 -66.8,61.17 -19.84,0 -37.98,-5.24 -54.45,-15.73 2.61,-10.5 3.92,-22.91 3.92,-37.29 v -193.42 h -58.93 v 185.27 c 0,40.78 -22.27,61.17 -66.81,61.17 -20.21,0 -40.04,-3.69 -59.5,-11.07 v -235.37 h -58.95 v 268.57 c 16.85,8.95 37.34,16.22 61.48,21.85 24.13,5.64 47.23,8.45 69.32,8.45 36.68,0 64,-7.38 81.95,-22.13 30.32,14.75 61.77,22.13 94.32,22.13 z m 318.28,0 c 30.69,0 56.79,-7.67 78.31,-23.01 21.53,-15.34 32.09,-40.1 31.71,-74.28 v -139.83 c 0,-26.4 -11.22,-44.76 -33.68,-55.05 -22.44,-10.3 -54.44,-15.44 -95.99,-15.44 -33.3,0 -60.81,7.19 -82.52,21.55 -21.7,14.37 -32.56,38.46 -32.56,72.25 0,31.85 8.9,55.73 26.68,71.65 17.76,15.93 42.93,23.89 75.5,23.89 33.67,0 61.75,-6.99 84.21,-20.98 v 27.97 c 0,39.62 -23.02,59.43 -69.06,59.43 -16.47,0 -32.93,-2.63 -49.4,-7.86 -16.47,-5.25 -30.13,-12.53 -40.97,-21.85 v 57.1 c 10.47,6.98 25.72,12.81 45.74,17.47 20.03,4.67 40.69,6.99 62.03,6.99 z m -12.91,-259.83 c 23.57,0 40.24,1.75 49.96,5.24 9.73,3.5 14.61,10.48 14.61,20.97 v 56.51 c -19.11,8.55 -40.05,12.81 -62.89,12.81 -21.32,0 -37.52,-3.88 -48.55,-11.65 -11.04,-7.76 -16.56,-19.41 -16.56,-34.95 0,-16.31 6.27,-28.55 18.8,-36.7 12.54,-8.15 27.41,-12.23 44.63,-12.23 z m 348.6,259.83 c 71.12,0 106.67,-39.23 106.67,-117.69 v -181.18 h -58.96 v 173.61 c 0,23.69 -5.42,41.76 -16.27,54.18 -10.86,12.43 -26.95,18.65 -48.27,18.65 -22.84,0 -44.91,-6.42 -66.24,-19.23 l -0.56,-227.21 h -58.39 v 415.98 h 58.95 v -140.99 c 28.06,15.92 55.75,23.88 83.07,23.88 z M 2395.57,1992.3 2194.6,1706.83 h 200.97 v -54.18 h -278.44 v 50.69 l 204.34,283.72 h -199.85 v 54.18 h 273.95 z m 199.29,-40.77 c 30.68,0 56.78,-7.68 78.3,-23.02 21.53,-15.35 32.09,-40.1 31.71,-74.28 V 1714.4 c 0,-26.4 -11.22,-44.76 -33.68,-55.05 -22.46,-10.3 -54.45,-15.44 -95.99,-15.44 -33.3,0 -60.81,7.19 -82.52,21.55 -21.7,14.37 -32.56,38.46 -32.56,72.25 0,31.84 8.9,55.74 26.68,71.66 17.76,15.92 42.94,23.88 75.5,23.88 33.67,0 61.75,-6.99 84.2,-20.97 v 27.97 c 0,39.61 -23.01,59.42 -69.05,59.42 -16.47,0 -32.93,-2.62 -49.4,-7.87 -16.48,-5.24 -30.12,-12.52 -40.98,-21.84 v 57.1 c 10.47,6.98 25.73,12.81 45.75,17.47 20.03,4.67 40.7,7 62.04,7 z m -12.92,-259.85 c 23.58,0 40.23,1.75 49.96,5.25 9.73,3.5 14.6,10.48 14.6,20.97 v 56.51 c -19.09,8.55 -40.04,12.82 -62.87,12.82 -21.33,0 -37.52,-3.89 -48.57,-11.66 -11.03,-7.76 -16.55,-19.41 -16.55,-34.95 0,-16.32 6.26,-28.55 18.8,-36.7 12.53,-8.15 27.41,-12.24 44.63,-12.24 z m 378.35,-39.03 -113.38,131.08 v -131.08 h -58.39 v 403.15 h 58.95 l -0.56,-220.22 102.71,109.53 h 72.42 l -127.99,-127 142.59,-165.46 z m 255.43,298.88 c 30.68,0 56.78,-7.68 78.31,-23.02 21.51,-15.35 32.08,-40.1 31.7,-74.28 V 1714.4 c 0,-26.4 -11.21,-44.76 -33.67,-55.05 -22.46,-10.3 -54.45,-15.44 -96,-15.44 -33.31,0 -60.81,7.19 -82.51,21.55 -21.72,14.37 -32.57,38.46 -32.57,72.25 0,31.84 8.9,55.74 26.67,71.66 17.77,15.92 42.94,23.88 75.51,23.88 33.68,0 61.74,-6.99 84.2,-20.97 v 27.97 c 0,39.61 -23.02,59.42 -69.06,59.42 -16.47,0 -32.93,-2.62 -49.39,-7.87 -16.47,-5.24 -30.12,-12.52 -40.98,-21.84 v 57.1 c 10.48,6.98 25.72,12.81 45.75,17.47 20.02,4.67 40.7,7 62.04,7 z m -12.92,-259.85 c 23.58,0 40.24,1.75 49.95,5.25 9.74,3.5 14.61,10.48 14.61,20.97 v 56.51 c -19.09,8.55 -40.05,12.82 -62.87,12.82 -21.33,0 -37.52,-3.89 -48.56,-11.66 -11.05,-7.76 -16.57,-19.41 -16.57,-34.95 0,-16.32 6.28,-28.55 18.81,-36.7 12.54,-8.15 27.41,-12.24 44.63,-12.24 z m 307.05,-46.61 c -25.81,0 -46.03,7.2 -60.61,21.56 -14.61,14.37 -21.9,34.76 -21.9,61.17 v 166.63 h -45.47 v 50.68 h 45.47 v 81.56 h 60.62 v -81.56 h 68.49 v -50.68 h -68.49 v -154.39 c 0,-14.37 2.43,-24.76 7.31,-31.17 4.86,-6.41 13.46,-9.61 25.81,-9.61 5.99,0 12.27,0.87 18.81,2.62 6.55,1.75 12.07,3.98 16.56,6.7 v -54.18 c -13.1,-6.22 -28.63,-9.33 -46.6,-9.33"
         style="fill:#4d4d4d;fill-opacity:1;fill-rule:nonzero;stroke:none"
         id="path14" />
      <path
         d="m 1160.7,1484.46 c 680.92,381.09 956.33,742.7 723.6,1079.92 -208.44,245.83 -449.39,269.46 -723.6,65.78 -274.212,203.68 -515.157,180.05 -723.595,-65.78 -232.734,-337.22 42.68,-698.83 723.595,-1079.92"
         style="fill:#eb5c18;fill-opacity:1;fill-rule:evenodd;stroke:none"
         id="path16" />
      <path
         d="m 1172.34,1491.04 c 62.93,35.44 122.35,70.72 178.16,105.82 V 1843 c 8.91,138.62 -185.73,123.36 -178.16,-53.45 v -298.51"
         style="fill:#ffffff;fill-opacity:1;fill-rule:evenodd;stroke:none"
         id="path18" />
      <path
         d="m 1486.06,1686.74 c 26.98,18.94 52.89,37.85 77.69,56.68 v 328.92 c 2.47,10.23 8.91,19.23 18.15,27.3 12.88,11.25 30.94,20.92 51.97,29.64 6.82,2.43 13.04,6.79 17.77,12.98 12.99,17.01 9.73,41.35 -7.28,54.33 l -483.2,370.95 -0.34,0.45 h -0.24 l -0.35,-0.45 -483.195,-370.95 c -17.008,-12.98 -20.273,-37.32 -7.281,-54.33 4.723,-6.19 10.949,-10.55 17.766,-12.98 21.027,-8.72 39.097,-18.39 51.964,-29.64 9.246,-8.08 15.692,-17.08 18.157,-27.3 v -328.91 c 24.8,-18.84 50.711,-37.73 77.695,-56.68 v 388.59 h -0.125 c -0.008,2 -0.164,4.03 -0.484,6.07 -4.985,31.19 -20.856,56.07 -44.258,76.52 -5.664,4.95 -11.754,9.6 -18.231,14.01 l 388.452,298.21 388.46,-298.2 c -6.47,-4.4 -12.57,-9.07 -18.24,-14.02 -23.39,-20.45 -39.26,-45.33 -44.24,-76.52 -0.32,-2.04 -0.48,-4.07 -0.49,-6.07 h -0.12 v -388.6"
         style="fill:#ffffff;fill-opacity:1;fill-rule:evenodd;stroke:none"
         id="path20" />
    </g>
  </g>
</svg>
