<?xml version="1.0" encoding="UTF-8"?>
<!DOCTYPE svg PUBLIC "-//W3C//DTD SVG 1.1//EN" "http://www.w3.org/Graphics/SVG/1.1/DTD/svg11.dtd">
<!-- Creator: CorelDRAW -->
<svg xmlns="http://www.w3.org/2000/svg" xml:space="preserve" width="210mm" height="297mm" version="1.1" style="shape-rendering:geometricPrecision; text-rendering:geometricPrecision; image-rendering:optimizeQuality; fill-rule:evenodd; clip-rule:evenodd"
viewBox="0 0 21000 29700"
 xmlns:xlink="http://www.w3.org/1999/xlink">
 <defs>
  <style type="text/css">
   <![CDATA[
    .fil0 {fill:#F6A903}
    .fil1 {fill:#EC6826}
   ]]>
  </style>
 </defs>
 <g id="Layer_x0020_1">
  <metadata id="CorelCorpID_0Corel-Layer"/>
  <g id="Lalamove.cdr">
   <path class="fil0" d="M15531 16120l-498 0c-21,1 -38,-15 -39,-35 -1,-3 -1,-6 0,-10l285 -1577c6,-21 -5,-43 -26,-49 -21,-7 -43,5 -49,26l-697 1623c-6,15 -22,25 -38,24l-615 0c-20,0 -37,-17 -37,-38 0,0 0,0 0,0l-125 -1623c3,-21 -12,-41 -33,-44 -22,-3 -41,13 -44,34 -1,2 -1,4 -1,6l-282 1631c-2,19 -18,32 -37,32l-498 0c-22,0 -39,-17 -39,-39 0,-1 0,-2 0,-3 0,-2 0,-4 0,-6l436 -2462c3,-19 19,-33 38,-33l869 0c21,0 38,17 38,38l0 0 119 1724c2,21 21,37 43,35 0,0 0,0 0,0 14,-1 26,-10 32,-22l706 -1748c5,-15 21,-25 37,-24l888 0c21,-1 38,15 39,35 0,4 0,7 0,10l-436 2462c-2,19 -18,33 -36,33z"/>
   <path class="fil0" d="M18190 14644c0,-409 -207,-689 -590,-689 -559,0 -821,602 -821,1102 0,405 206,688 589,688 557,0 823,-600 823,-1101l-1 0zm611 -15c0,906 -599,1541 -1466,1541 -752,0 -1167,-478 -1167,-1101 0,-909 601,-1541 1466,-1541 751,0 1167,479 1167,1101z"/>
   <path class="fil0" d="M19551 16088l-429 -2462c-4,-20 8,-41 29,-45 3,-1 6,-1 9,0l546 0c19,-2 36,13 37,33 0,0 0,1 0,2l255 1931c-3,21 10,40 31,44 0,0 0,0 1,0 20,3 40,-11 43,-31l956 -1955c6,-14 20,-22 35,-22l529 0c21,-2 39,14 41,35 0,0 0,0 0,0 0,8 -2,17 -6,24l-1306 2461c-6,13 -20,21 -35,21l-698 0c-21,0 -37,-16 -38,-36z"/>
   <path class="fil0" d="M22328 14622l1096 0c20,-1 37,15 39,35 0,3 0,7 0,10l-66 370c-3,19 -19,32 -38,32l-1126 0c-18,1 -34,14 -37,33l-89 519c-5,21 8,41 28,45 0,0 0,0 0,0 3,1 6,1 10,0l1213 0c21,-1 38,15 39,36 0,3 0,6 0,9l-67 376c-3,19 -19,33 -38,33l-1803 0c-20,0 -37,-15 -39,-36 0,-3 0,-6 0,-9l436 -2463c2,-19 18,-32 37,-32l1767 0c20,0 37,15 39,35 0,2 0,3 0,4l0 0 0 1 0 0 0 0 0 1 0 0 0 0 0 0c0,1 0,3 0,4l-67 371c-3,18 -19,32 -38,32l-1206 0c-19,1 -34,14 -38,33l-90 513c-7,19 3,39 22,45 5,2 11,2 16,1l0 2z"/>
   <path class="fil1" d="M5017 16120l-1643 0c-20,1 -37,-15 -38,-35 -1,-3 -1,-6 0,-10l433 -2462c3,-19 19,-33 38,-32l494 0c19,-2 36,12 38,32 0,1 0,2 0,3 0,3 0,7 0,10l-344 1962c-5,20 8,41 28,45 3,1 6,1 10,0l1199 0c21,-1 39,14 41,35 0,0 0,1 0,1 0,8 -2,16 -6,23l-217 407c-6,13 -19,21 -33,21z"/>
   <path class="fil1" d="M9728 16120l-1642 0c-20,1 -37,-15 -38,-35 -1,-3 -1,-6 0,-10l435 -2462c2,-19 18,-33 37,-32l494 0c20,-1 37,15 39,35 0,3 0,7 0,10l-349 1962c-4,21 8,41 29,45 3,1 6,1 9,0l1200 0c20,-1 39,14 40,35 0,0 0,1 0,1 1,8 -1,16 -6,23l-216 408c-7,12 -19,20 -32,20z"/>
   <path class="fil1" d="M12104 13612c-3,-18 -19,-32 -38,-32l-700 0c-14,0 -28,8 -35,20l-1305 2463c-11,17 -7,41 10,52 8,5 16,7 25,6l529 0c15,0 29,-8 36,-22l82 -166 516 -1038 0 -2 75 -154 53 -106 207 -418c3,-20 23,-34 43,-31 21,3 35,22 32,43 0,0 0,0 0,1l97 676c3,22 -11,42 -33,45 0,0 0,0 0,0l-314 0c-21,0 -40,12 -50,30l-170 343c-14,27 -4,60 23,74 1,0 1,0 1,0 8,4 16,6 25,7l564 0c20,-1 36,14 38,33l94 651c1,20 18,35 37,35l546 0c20,0 37,-15 38,-35 1,-3 1,-6 0,-9l-426 -2466z"/>
   <path class="fil1" d="M7393 13612c-2,-18 -19,-32 -38,-32l-700 0c-15,-1 -29,7 -35,20l-1305 2463c-11,19 -3,43 16,53 6,3 12,5 18,5l530 0c15,0 29,-8 35,-22l37 -75 562 -1129 0 -2 55 -108 29 -59 256 -511c4,-21 23,-35 44,-31 21,3 35,23 32,44l97 676c3,22 -12,42 -33,45l-315 0c-21,0 -40,12 -49,30l-170 343c-14,27 -3,60 24,74 8,4 16,6 25,6l562 0c19,0 35,14 37,33l94 650c2,19 18,34 37,35l546 0c20,1 37,-15 38,-35 1,-3 1,-6 0,-9l-429 -2464z"/>
   <path class="fil1" d="M2923 12204c-1969,0 -1537,1297 -1537,1297 -263,-82 -3617,-1191 -4094,-1347 -8,-2 -17,2 -20,11 -1,1 -1,3 -1,4l0 0 0 1 0 0c0,4 2,7 4,10 49,56 147,166 304,342 11,13 26,23 43,29l48 16 2779 912c15,5 29,16 37,30l150 257c2,1 2,3 0,4 0,0 0,0 0,0 -1,0 -2,0 -2,0l-2712 -891c-4,-1 -8,0 -9,4 -2,3 -1,6 1,8 65,70 132,144 201,219 20,21 44,36 71,45l2575 844c16,5 30,16 38,30l150 257c1,1 1,3 0,4 -1,1 -2,1 -3,0l-2469 -809c-3,-1 -7,1 -8,4 -1,2 -1,4 0,6 77,81 154,162 232,243 10,10 22,18 35,22l2323 761c21,7 39,22 51,41l147 249c1,1 1,3 0,4 -1,1 -1,1 -2,0l-2162 -708c-6,-2 -12,1 -13,7 0,0 0,0 0,1 -1,3 0,7 2,10 482,482 911,865 1073,880l-1549 3481c-5,12 1,27 14,32 2,1 6,2 9,2 5,0 10,-2 15,-6 698,-572 1189,-2097 1932,-2502 1074,-586 1488,-929 1753,-1516 312,-692 710,-1849 769,-1894 423,-328 1183,-1061 1504,-1376 8,-9 8,-22 0,-31 -5,-4 -10,-7 -16,-7l0 0c-4,0 -8,1 -12,4 -446,288 -1588,1016 -1651,1016z"/>
  </g>
 </g>
</svg>
