<svg xmlns="http://www.w3.org/2000/svg" width="568" height="568"><path d="M0 4251.97h4251.97V0H0z" style="fill:#fff;fill-opacity:1;fill-rule:evenodd;stroke:none" transform="matrix(.13333 0 0 -.13333 0 568)"/><path d="m2356.27 2192.09-87.57 146.81h-79.15v-146.81h-61.75v388.59h166.17c39.29 0 69.32-9.8 90.1-29.42 20.77-19.61 31.14-48.84 31.14-87.68 0-27.96-7.38-52.43-22.17-73.41-14.78-20.97-34.71-34.37-59.78-40.19l99.93-157.89zm-166.72 199.25h87.02c24.69 0 43.12 5.62 55.29 16.89 12.16 11.27 18.25 28.36 18.25 51.27 0 22.14-4.97 38.84-14.89 50.1-9.9 11.28-26.09 16.9-48.54 16.9h-97.13zm433.38-207.99c-39.3 0-69.89 10-91.79 30.01-21.89 20-32.84 49.22-32.84 87.68v183.51h58.94v-174.78c0-24.85 5.34-43.21 16.01-55.05 10.66-11.85 27.22-17.77 49.68-17.77 22.45 0 39 5.92 49.67 17.77 10.66 11.84 16.01 30.2 16.01 55.05v174.78h56.69v-183.51c0-38.46-10.67-67.68-32-87.68-21.34-20.01-51.46-30.01-90.37-30.01m512.52 307.61c39.29 0 68.01-8.54 86.16-25.64 18.15-17.09 27.24-43.69 27.24-79.81v-193.42h-58.95v185.27c0 40.78-22.27 61.17-66.8 61.17-19.84 0-37.98-5.24-54.45-15.73 2.61-10.5 3.92-22.91 3.92-37.29v-193.42h-58.93v185.27q0 61.17-66.81 61.17c-20.21 0-40.04-3.69-59.5-11.07v-235.37h-58.95v268.57c16.85 8.95 37.34 16.22 61.48 21.85 24.13 5.64 47.23 8.45 69.32 8.45 36.68 0 64-7.38 81.95-22.13 30.32 14.75 61.77 22.13 94.32 22.13m318.28 0c30.69 0 56.79-7.67 78.31-23.01 21.53-15.34 32.09-40.1 31.71-74.28v-139.83c0-26.4-11.22-44.76-33.68-55.05-22.44-10.3-54.44-15.44-95.99-15.44-33.3 0-60.81 7.19-82.52 21.55-21.7 14.37-32.56 38.46-32.56 72.25 0 31.85 8.9 55.73 26.68 71.65 17.76 15.93 42.93 23.89 75.5 23.89 33.67 0 61.75-6.99 84.21-20.98v27.97q0 59.43-69.06 59.43c-16.47 0-32.93-2.63-49.4-7.86-16.47-5.25-30.13-12.53-40.97-21.85v57.1c10.47 6.98 25.72 12.81 45.74 17.47 20.03 4.67 40.69 6.99 62.03 6.99m-12.91-259.83c23.57 0 40.24 1.75 49.96 5.24 9.73 3.5 14.61 10.48 14.61 20.97v56.51c-19.11 8.55-40.05 12.81-62.89 12.81-21.32 0-37.52-3.88-48.55-11.65q-16.56-11.64-16.56-34.95c0-16.31 6.27-28.55 18.8-36.7 12.54-8.15 27.41-12.23 44.63-12.23m348.6 259.83c71.12 0 106.67-39.23 106.67-117.69v-181.18h-58.96v173.61c0 23.69-5.42 41.76-16.27 54.18-10.86 12.43-26.95 18.65-48.27 18.65-22.84 0-44.91-6.42-66.24-19.23l-.56-227.21h-58.39v415.98h58.95v-140.99q42.09 23.88 83.07 23.88M2395.57 1992.3l-200.97-285.47h200.97v-54.18h-278.44v50.69l204.34 283.72h-199.85v54.18h273.95zm199.29-40.77c30.68 0 56.78-7.68 78.3-23.02 21.53-15.35 32.09-40.1 31.71-74.28V1714.4c0-26.4-11.22-44.76-33.68-55.05-22.46-10.3-54.45-15.44-95.99-15.44-33.3 0-60.81 7.19-82.52 21.55-21.7 14.37-32.56 38.46-32.56 72.25 0 31.84 8.9 55.74 26.68 71.66 17.76 15.92 42.94 23.88 75.5 23.88 33.67 0 61.75-6.99 84.2-20.97v27.97c0 39.61-23.01 59.42-69.05 59.42-16.47 0-32.93-2.62-49.4-7.87-16.48-5.24-30.12-12.52-40.98-21.84v57.1c10.47 6.98 25.73 12.81 45.75 17.47 20.03 4.67 40.7 7 62.04 7m-12.92-259.85c23.58 0 40.23 1.75 49.96 5.25s14.6 10.48 14.6 20.97v56.51c-19.09 8.55-40.04 12.82-62.87 12.82-21.33 0-37.52-3.89-48.57-11.66-11.03-7.76-16.55-19.41-16.55-34.95 0-16.32 6.26-28.55 18.8-36.7 12.53-8.15 27.41-12.24 44.63-12.24m378.35-39.03-113.38 131.08v-131.08h-58.39v403.15h58.95l-.56-220.22 102.71 109.53h72.42l-127.99-127 142.59-165.46zm255.43 298.88c30.68 0 56.78-7.68 78.31-23.02 21.51-15.35 32.08-40.1 31.7-74.28V1714.4c0-26.4-11.21-44.76-33.67-55.05-22.46-10.3-54.45-15.44-96-15.44-33.31 0-60.81 7.19-82.51 21.55-21.72 14.37-32.57 38.46-32.57 72.25 0 31.84 8.9 55.74 26.67 71.66q26.655 23.88 75.51 23.88c33.68 0 61.74-6.99 84.2-20.97v27.97c0 39.61-23.02 59.42-69.06 59.42-16.47 0-32.93-2.62-49.39-7.87-16.47-5.24-30.12-12.52-40.98-21.84v57.1c10.48 6.98 25.72 12.81 45.75 17.47 20.02 4.67 40.7 7 62.04 7m-12.92-259.85c23.58 0 40.24 1.75 49.95 5.25 9.74 3.5 14.61 10.48 14.61 20.97v56.51c-19.09 8.55-40.05 12.82-62.87 12.82-21.33 0-37.52-3.89-48.56-11.66-11.05-7.76-16.57-19.41-16.57-34.95 0-16.32 6.28-28.55 18.81-36.7 12.54-8.15 27.41-12.24 44.63-12.24m307.05-46.61c-25.81 0-46.03 7.2-60.61 21.56-14.61 14.37-21.9 34.76-21.9 61.17v166.63h-45.47v50.68h45.47v81.56h60.62v-81.56h68.49v-50.68h-68.49v-154.39c0-14.37 2.43-24.76 7.31-31.17 4.86-6.41 13.46-9.61 25.81-9.61 5.99 0 12.27.87 18.81 2.62 6.55 1.75 12.07 3.98 16.56 6.7v-54.18c-13.1-6.22-28.63-9.33-46.6-9.33" style="fill:#4d4d4d;fill-opacity:1;fill-rule:nonzero;stroke:none" transform="matrix(.13333 0 0 -.13333 0 568)"/><path d="M1160.7 1484.46c680.92 381.09 956.33 742.7 723.6 1079.92-208.44 245.83-449.39 269.46-723.6 65.78-274.212 203.68-515.157 180.05-723.595-65.78-232.734-337.22 42.68-698.83 723.595-1079.92" style="fill:#eb5c18;fill-opacity:1;fill-rule:evenodd;stroke:none" transform="matrix(.13333 0 0 -.13333 0 568)"/><path d="M1172.34 1491.04c62.93 35.44 122.35 70.72 178.16 105.82V1843c8.91 138.62-185.73 123.36-178.16-53.45z" style="fill:#fff;fill-opacity:1;fill-rule:evenodd;stroke:none" transform="matrix(.13333 0 0 -.13333 0 568)"/><path d="M1486.06 1686.74c26.98 18.94 52.89 37.85 77.69 56.68v328.92c2.47 10.23 8.91 19.23 18.15 27.3 12.88 11.25 30.94 20.92 51.97 29.64a38.6 38.6 0 0 1 17.77 12.98c12.99 17.01 9.73 41.35-7.28 54.33l-483.2 370.95-.34.45h-.24l-.35-.45-483.195-370.95c-17.008-12.98-20.273-37.32-7.281-54.33a38.57 38.57 0 0 1 17.766-12.98c21.027-8.72 39.097-18.39 51.964-29.64 9.246-8.08 15.692-17.08 18.157-27.3v-328.91c24.8-18.84 50.711-37.73 77.695-56.68v388.59h-.125c-.008 2-.164 4.03-.484 6.07-4.985 31.19-20.856 56.07-44.258 76.52-5.664 4.95-11.754 9.6-18.231 14.01l388.452 298.21 388.46-298.2c-6.47-4.4-12.57-9.07-18.24-14.02-23.39-20.45-39.26-45.33-44.24-76.52-.32-2.04-.48-4.07-.49-6.07h-.12z" style="fill:#fff;fill-opacity:1;fill-rule:evenodd;stroke:none" transform="matrix(.13333 0 0 -.13333 0 568)"/></svg>